HIERARCHY
ROOT Hips
{
	OFFSET 0.00 0.00 0.00
	CHANNELS 6 Xposition Yposition Zposition Xrotation Yrotation Zrotation
	JOINT Spine
	{
		OFFSET 0.00000 6.11665 0.00000
		CHANNELS 3 Xrotation Yrotation Zrotation
		JOINT Head
		{
			OFFSET 0.00000 15.22556 0.00000
			CHANNELS 3 Xrotation Yrotation Zrotation
			End Site
			{
				OFFSET 0.00000 4.52755 0.00000
			}
		}
		JOINT LeftShoulder
		{
			OFFSET 0.00000 8.97765 0.00000
			CHANNELS 3 Xrotation Yrotation Zrotation
			JOINT LeftArm
			{
				OFFSET 7.11013 0.00000 0.00000
				CHANNELS 3 Xrotation Yrotation Zrotation
				JOINT LeftForeArm
				{
					OFFSET 10.39834 0.00000 0.00000
					CHANNELS 3 Yrotation Zrotation Xrotation
					JOINT LeftHand
					{
						OFFSET 8.88900 0.00000 0.00000
						CHANNELS 3 Xrotation Yrotation Zrotation
						JOINT LeftHandThumb1
						{
							OFFSET 0.00000 0.00000 0.00000
							CHANNELS 3 Xrotation Zrotation Yrotation
							End Site
							{
								OFFSET 0.00000 0.00000 3.93700
							}
						}
						End Site
						{
							OFFSET 3.93700 0.00000 0.00000
						}
					}
				}
			}
		}
		JOINT RightShoulder
		{
			OFFSET 0.00000 8.97765 0.00000
			CHANNELS 3 Xrotation Yrotation Zrotation
			JOINT RightArm
			{
				OFFSET -7.11013 0.00000 0.00000
				CHANNELS 3 Xrotation Yrotation Zrotation
				JOINT RightForeArm
				{
					OFFSET -10.39834 0.00000 0.00000
					CHANNELS 3 Yrotation Zrotation Xrotation
					JOINT RightHand
					{
						OFFSET -8.88900 0.00000 0.00000
						CHANNELS 3 Xrotation Yrotation Zrotation
						JOINT RightHandThumb1
						{
							OFFSET 0.00000 0.00000 0.00000
							CHANNELS 3 Xrotation Zrotation Yrotation
							End Site
							{
								OFFSET 0.00000 0.00000 3.93700
							}
						}
						End Site
						{
							OFFSET -3.93700 0.00000 0.00000
						}
					}
				}
			}
		}
	}
	JOINT LeftUpLeg
	{
		OFFSET 4.71176 0.00000 0.00000
		CHANNELS 3 Xrotation Yrotation Zrotation
		JOINT LeftLeg
		{
			OFFSET 0.00000 -15.51045 0.00000
			CHANNELS 3 Xrotation Yrotation Zrotation
			JOINT LeftFoot
			{
				OFFSET 0.00000 -14.85806 0.00000
				CHANNELS 3 Xrotation Yrotation Zrotation
				JOINT LeftToeBase
				{
					OFFSET 0.00000 -1.32744 4.95409
					CHANNELS 3 Xrotation Yrotation Zrotation
					End Site
					{
						OFFSET 0.00000 0.00000 2.95275
					}
				}
			}
		}
	}
	JOINT RightUpLeg
	{
		OFFSET -4.71176 0.00000 0.00000
		CHANNELS 3 Xrotation Yrotation Zrotation
		JOINT RightLeg
		{
			OFFSET 0.00000 -15.51045 0.00000
			CHANNELS 3 Xrotation Yrotation Zrotation
			JOINT RightFoot
			{
				OFFSET 0.00000 -14.85806 0.00000
				CHANNELS 3 Xrotation Yrotation Zrotation
				JOINT RightToeBase
				{
					OFFSET 0.00000 -1.32744 4.95409
					CHANNELS 3 Xrotation Yrotation Zrotation
					End Site
					{
						OFFSET 0.00000 0.00000 2.95275
					}
				}
			}
		}
	}
}
MOTION
Frames:	22
Frame Time: 0.008333
-3.9311 32.3553 -0.0077 -3.0923 -1.0211 -0.6331 2.9982 -4.0260 0.0426 1.6902 5.5614 -2.2879 0.7372 25.7595 42.1806 -24.1233 -4.8932 -38.2285 -6.5934 0.0000 19.1884 -1.8455 -16.2879 -6.5538 32.8623 0.0000 24.3270 -13.4833 -6.8937 -42.1058 -19.8183 4.9204 41.7442 -10.0072 -0.0000 20.9998 -0.8775 9.1595 5.4962 33.1476 -0.0000 -26.2537 8.1892 8.2385 -2.2922 0.4923 -0.0000 -0.0000 -9.5315 18.5266 -5.9286 10.9306 -0.0000 -0.0000 9.1474 -0.9210 0.6547 1.6992 -0.0000 -0.0000 -11.8368 -23.1746 13.7047 16.8107 -0.0000 -0.0000
-3.9319 32.3549 -0.0097 -3.0991 -1.0155 -0.6453 3.0033 -4.0325 0.0516 1.7044 5.5368 -2.2588 0.7587 25.7811 42.1815 -24.1403 -4.8978 -38.2290 -6.6014 0.0000 19.1706 -1.8442 -16.2952 -6.5464 32.8623 0.0000 24.3270 -13.4850 -6.8846 -42.1012 -19.7995 4.9376 41.7417 -10.0080 0.0000 20.9855 -0.8803 9.1891 5.4959 33.1476 -0.0000 -26.2537 8.1804 8.2730 -2.2732 0.5137 -0.0000 -0.0000 -9.5419 18.4865 -5.9529 10.9003 -0.0000 -0.0000 9.1506 -0.9180 0.6662 1.6909 -0.0000 -0.0000 -11.8445 -23.2361 13.8003 17.0265 -0.0000 -0.0000
-3.9329 32.3546 -0.0131 -3.0936 -1.0138 -0.6481 3.0014 -4.0210 0.0491 1.7013 5.5142 -2.2481 0.7507 25.7886 42.1882 -24.1742 -4.8944 -38.2298 -6.6020 0.0000 19.3024 -1.8986 -16.4322 -6.6836 32.8623 0.0000 24.3270 -13.4869 -6.9216 -42.1121 -19.8395 4.9354 41.7623 -9.9944 -0.0000 21.0438 -0.8843 9.1781 5.5271 33.1476 -0.0000 -26.2537 8.1678 8.2748 -2.2687 0.5139 -0.0000 -0.0000 -9.5364 18.4829 -5.9599 10.8682 -0.0000 -0.0000 9.1300 -0.9015 0.6752 1.7181 -0.0000 -0.0000 -11.8478 -23.2058 13.6878 16.8906 -0.0000 -0.0000
-3.9309 32.3548 -0.0135 -3.1092 -1.0182 -0.6482 3.0138 -4.0191 0.0544 1.7130 5.5182 -2.2375 0.7479 25.7925 42.1875 -24.1373 -4.9214 -38.2257 -6.6244 0.0000 19.3186 -1.9085 -16.4424 -6.7142 32.8623 0.0000 24.3270 -13.4955 -6.9043 -42.1193 -19.8172 4.9479 41.7664 -9.9984 0.0000 21.0399 -0.8832 9.1688 5.5257 33.1476 -0.0000 -26.2537 8.1837 8.2817 -2.2740 0.5126 -0.0000 -0.0000 -9.5391 18.4873 -5.9684 10.9325 -0.0000 -0.0000 9.1449 -0.9036 0.6665 1.7079 -0.0000 -0.0000 -11.8590 -23.2568 13.8123 17.0686 -0.0000 -0.0000
-3.9308 32.3550 -0.0172 -3.1026 -1.0083 -0.6473 3.0101 -4.0451 0.0470 1.7090 5.5118 -2.2069 0.7505 25.8180 42.1855 -24.0910 -4.9727 -38.2069 -6.6398 -0.0000 19.2892 -1.9174 -16.4285 -6.7508 32.8623 0.0000 24.3270 -13.4841 -6.9027 -42.1046 -19.8373 4.9684 41.7683 -10.0163 -0.0000 21.0602 -0.8897 9.1779 5.5611 33.1476 -0.0000 -26.2537 8.1655 8.2668 -2.2709 0.5216 -0.0000 -0.0000 -9.5441 18.4862 -5.9719 10.9626 -0.0000 -0.0000 9.1265 -0.8986 0.6680 1.7206 -0.0000 -0.0000 -11.8471 -23.2620 13.7952 17.0443 -0.0000 -0.0000
-3.9298 32.3551 -0.0186 -3.1100 -1.0208 -0.6435 3.0136 -4.0331 0.0399 1.7272 5.4894 -2.1835 0.7727 25.8370 42.1770 -24.0808 -5.0098 -38.1928 -6.6506 0.0000 19.2930 -1.9398 -16.4329 -6.8272 32.8623 0.0000 24.3270 -13.4876 -6.8872 -42.1058 -19.8214 4.9752 41.7744 -10.0227 0.0000 21.0802 -0.8942 9.1680 5.5950 33.1476 -0.0000 -26.2537 8.1709 8.2928 -2.2785 0.5283 -0.0000 -0.0000 -9.5409 18.4767 -5.9643 10.9223 -0.0000 -0.0000 9.1235 -0.8934 0.6624 1.7433 -0.0000 -0.0000 -11.8424 -23.2010 13.7054 16.8235 -0.0000 -0.0000
-3.9303 32.3551 -0.0215 -3.1096 -1.0113 -0.6505 3.0163 -4.0363 0.0421 1.7219 5.4745 -2.1646 0.7530 25.8364 42.1917 -24.0506 -5.0555 -38.1943 -6.6458 0.0000 19.2738 -1.9493 -16.4339 -6.8597 32.8623 0.0000 24.3270 -13.4922 -6.8786 -42.1044 -19.7856 4.9906 41.7769 -10.0188 -0.0000 21.0602 -0.9046 9.2101 5.6342 33.1476 -0.0000 -26.2537 8.1637 8.2901 -2.2703 0.5236 -0.0000 -0.0000 -9.5407 18.4649 -5.9230 10.9111 -0.0000 -0.0000 9.1169 -0.8964 0.6721 1.7465 -0.0000 -0.0000 -11.8378 -23.2006 13.6825 16.7821 -0.0000 -0.0000
-3.9300 32.3551 -0.0235 -3.1113 -1.0089 -0.6508 3.0149 -4.0342 0.0365 1.7328 5.4761 -2.1350 0.7323 25.8151 42.2125 -24.0144 -5.0722 -38.1954 -6.6368 0.0000 19.2589 -1.9558 -16.4674 -6.8690 32.8623 0.0000 24.3270 -13.4971 -6.8598 -42.1010 -19.7732 4.9828 41.7749 -10.0229 0.0000 21.0888 -0.9133 9.2028 5.6921 33.1476 -0.0000 -26.2537 8.1631 8.2929 -2.2701 0.5228 -0.0000 -0.0000 -9.5389 18.4590 -5.9508 10.8876 -0.0000 -0.0000 9.1138 -0.8923 0.6725 1.7508 -0.0000 -0.0000 -11.8391 -23.2054 13.6715 16.7487 -0.0000 -0.0000
-3.9287 32.3554 -0.0239 -3.1266 -1.0175 -0.6496 3.0286 -4.0288 0.0354 1.7417 5.4689 -2.1196 0.7334 25.8260 42.2151 -24.0251 -5.0831 -38.2014 -6.6278 0.0000 19.2328 -1.9503 -16.4155 -6.8710 32.8623 0.0000 24.3270 -13.4982 -6.8414 -42.0992 -19.7691 4.9754 41.7744 -10.0208 0.0000 21.0994 -0.9179 9.2193 5.7105 33.1476 -0.0000 -26.2537 8.1767 8.3189 -2.2749 0.5274 -0.0000 -0.0000 -9.5284 18.4442 -5.9642 10.8768 -0.0000 -0.0000 9.1245 -0.8823 0.6679 1.7543 -0.0000 -0.0000 -11.8427 -23.2141 13.6850 16.8210 -0.0000 -0.0000
-3.9290 32.3554 -0.0273 -3.1175 -1.0041 -0.6541 3.0226 -4.0238 0.0371 1.7423 5.4489 -2.1047 0.7354 25.8303 42.2184 -24.0807 -5.0880 -38.2142 -6.6008 0.0000 19.2430 -1.9339 -16.4290 -6.8082 32.8623 0.0000 24.3270 -13.4834 -6.8671 -42.1006 -19.7738 4.9891 41.7811 -10.0243 0.0000 21.0673 -0.9189 9.2548 5.6952 33.1476 -0.0000 -26.2537 8.1591 8.2839 -2.2692 0.5258 -0.0000 -0.0000 -9.5295 18.4726 -5.9607 10.8864 -0.0000 -0.0000 9.1107 -0.8710 0.6746 1.7556 -0.0000 -0.0000 -11.8352 -23.2297 13.6929 16.7811 -0.0000 -0.0000
-3.9284 32.3554 -0.0290 -3.1201 -0.9932 -0.6506 3.0260 -4.0230 0.0294 1.7476 5.4332 -2.0797 0.7138 25.8120 42.2326 -24.0793 -5.0932 -38.2164 -6.5914 0.0000 19.2159 -1.9357 -16.4094 -6.8223 32.8623 0.0000 24.3270 -13.5646 -6.7612 -42.1186 -19.6339 4.9256 41.7844 -9.9947 0.0000 21.0412 -0.9253 9.3135 5.6992 33.1476 -0.0000 -26.2537 8.1548 8.2723 -2.2713 0.5318 -0.0000 -0.0000 -9.5323 18.4748 -5.9448 10.9041 -0.0000 -0.0000 9.1112 -0.8909 0.6730 1.7578 -0.0000 -0.0000 -11.8482 -23.2292 13.6723 16.8028 -0.0000 -0.0000
-3.9272 32.3555 -0.0285 -3.1369 -0.9975 -0.6544 3.0402 -4.0031 0.0343 1.7536 5.4110 -2.0695 0.7590 25.8315 42.2144 -24.1457 -5.0816 -38.2188 -6.6013 0.0000 19.1918 -1.9255 -16.3849 -6.7966 32.8623 0.0000 24.3270 -13.5556 -6.7797 -42.1187 -19.6699 4.9086 41.7883 -9.9831 0.0000 21.0743 -0.9217 9.3534 5.6532 33.1476 -0.0000 -26.2537 8.1732 8.2781 -2.2695 0.5335 -0.0000 -0.0000 -9.5390 18.4690 -5.9559 10.9183 -0.0000 -0.0000 9.1273 -0.8755 0.6738 1.7687 -0.0000 -0.0000 -11.8560 -23.2333 13.6859 16.7501 -0.0000 -0.0000
-3.9266 32.3557 -0.0324 -3.1277 -0.9792 -0.6507 3.0364 -4.0095 0.0263 1.7519 5.4034 -2.0600 0.7603 25.8141 42.2191 -24.1654 -5.0458 -38.2165 -6.6320 0.0000 19.1918 -1.9186 -16.3526 -6.7852 32.8623 0.0000 24.3270 -13.5798 -6.7546 -42.1139 -19.6350 4.9023 41.7886 -9.9826 -0.0000 21.0598 -0.9173 9.3455 5.6313 33.1476 -0.0000 -26.2537 8.1443 8.2796 -2.2696 0.5545 -0.0000 -0.0000 -9.5454 18.4531 -5.9707 10.9657 -0.0000 -0.0000 9.1108 -0.8995 0.6716 1.7665 -0.0000 -0.0000 -11.8360 -23.2298 13.6907 16.7615 -0.0000 -0.0000
-3.9256 32.3556 -0.0321 -3.1441 -0.9856 -0.6523 3.0525 -3.9895 0.0312 1.7580 5.3784 -2.0524 0.6736 25.7173 42.2675 -24.0407 -5.0293 -38.2259 -6.6567 0.0000 19.1771 -1.9125 -16.3406 -6.7684 32.8623 0.0000 24.3270 -13.6025 -6.7305 -42.1266 -19.6213 4.8722 41.7983 -9.9648 -0.0000 21.1218 -0.9090 9.3464 5.5799 33.1476 -0.0000 -26.2537 8.1694 8.2594 -2.2719 0.5396 -0.0000 -0.0000 -9.5358 18.4792 -5.9733 10.9153 -0.0000 -0.0000 9.1269 -0.8958 0.6697 1.7651 -0.0000 -0.0000 -11.8392 -23.2316 13.6912 16.7961 -0.0000 -0.0000
-3.9256 32.3561 -0.0361 -3.1332 -0.9674 -0.6464 3.0453 -3.9987 0.0189 1.7624 5.3725 -2.0385 0.6587 25.6932 42.2881 -24.0246 -5.0076 -38.2337 -6.6910 -0.0000 19.2102 -1.9129 -16.3428 -6.7690 32.8623 0.0000 24.3270 -13.5792 -6.7521 -42.1161 -19.6631 4.8729 41.8031 -9.9696 0.0000 21.1478 -0.9085 9.3283 5.5876 33.1476 -0.0000 -26.2537 8.1437 8.2553 -2.2742 0.5484 -0.0000 -0.0000 -9.5240 18.4634 -5.9625 10.9602 -0.0000 -0.0000 9.1062 -0.8989 0.6669 1.7752 -0.0000 -0.0000 -11.8410 -23.2461 13.6944 16.8144 -0.0000 -0.0000
-3.9240 32.3562 -0.0363 -3.1476 -0.9820 -0.6485 3.0603 -3.9760 0.0261 1.7679 5.3737 -2.0474 0.6597 25.6776 42.2861 -24.0070 -5.0056 -38.2320 -6.7163 -0.0000 19.2366 -1.9174 -16.3430 -6.7846 32.8623 0.0000 24.3270 -13.5641 -6.7793 -42.1208 -19.6948 4.9035 41.8125 -9.9645 -0.0000 21.1538 -0.9107 9.3059 5.6143 33.1476 -0.0000 -26.2537 8.1622 8.3076 -2.2773 0.5463 -0.0000 -0.0000 -9.5158 18.4247 -5.9625 10.8956 -0.0000 -0.0000 9.1185 -0.8624 0.6649 1.7829 -0.0000 -0.0000 -11.8519 -23.2655 13.6960 16.7696 -0.0000 -0.0000
-3.9224 32.3564 -0.0377 -3.1501 -0.9713 -0.6430 3.0617 -3.9975 0.0215 1.7762 5.3859 -2.0495 0.6635 25.6973 42.2871 -23.9799 -5.0399 -38.2289 -6.7376 -0.0000 19.2385 -1.9285 -16.3759 -6.8105 32.8623 0.0000 24.3270 -13.5773 -6.7294 -42.1039 -19.6524 4.9182 41.7935 -9.9837 -0.0000 21.1790 -0.9172 9.3802 5.6100 33.1476 -0.0000 -26.2537 8.1576 8.2924 -2.2841 0.5555 -0.0000 -0.0000 -9.5144 18.4201 -5.9466 10.8740 -0.0000 -0.0000 9.1206 -0.8838 0.6572 1.7743 -0.0000 -0.0000 -11.8281 -23.2463 13.6758 16.6849 -0.0000 -0.0000
-3.9227 32.3561 -0.0390 -3.1539 -0.9714 -0.6504 3.0660 -3.9973 0.0297 1.7865 5.3884 -2.0512 0.6609 25.6964 42.2914 -23.9604 -5.0632 -38.2244 -6.7461 0.0000 19.2520 -1.9386 -16.3801 -6.8440 32.8623 0.0000 24.3270 -13.5537 -6.7371 -42.1029 -19.6613 4.9531 41.7972 -9.9937 -0.0000 21.1809 -0.9203 9.3886 5.6239 33.1476 -0.0000 -26.2537 8.1637 8.2828 -2.2769 0.5434 -0.0000 -0.0000 -9.5187 18.4427 -5.9705 10.8748 -0.0000 -0.0000 9.1206 -0.8776 0.6641 1.7740 -0.0000 -0.0000 -11.8343 -23.2578 13.6896 16.8116 -0.0000 -0.0000
-3.9210 32.3567 -0.0403 -3.1611 -0.9672 -0.6436 3.0770 -4.0017 0.0252 1.7886 5.3879 -2.0432 0.6643 25.7126 42.2861 -23.9595 -5.0998 -38.2218 -6.7397 0.0000 19.2583 -1.9545 -16.4031 -6.8903 32.8623 0.0000 24.3270 -13.5418 -6.7404 -42.1042 -19.6737 4.9694 41.8036 -9.9906 0.0000 21.1864 -0.9245 9.3757 5.6571 33.1476 -0.0000 -26.2537 8.1681 8.3026 -2.2857 0.5457 -0.0000 -0.0000 -9.5155 18.4202 -5.9656 10.9832 -0.0000 -0.0000 9.1243 -0.8989 0.6555 1.7775 -0.0000 -0.0000 -11.8312 -23.2479 13.7023 16.8099 -0.0000 -0.0000
-3.9199 32.3568 -0.0417 -3.1616 -0.9686 -0.6440 3.0814 -3.9945 0.0324 1.7935 5.3509 -2.0317 0.6603 25.7051 42.2796 -23.9378 -5.1241 -38.2134 -6.7462 0.0000 19.2415 -1.9586 -16.3822 -6.9132 32.8623 0.0000 24.3270 -13.5132 -6.7840 -42.1008 -19.7308 5.0209 41.8056 -10.0200 -0.0000 21.1801 -0.9258 9.4088 5.6452 33.1476 -0.0000 -26.2537 8.1709 8.3028 -2.2893 0.5356 -0.0000 -0.0000 -9.5054 18.4131 -5.9352 10.9287 -0.0000 -0.0000 9.1205 -0.8926 0.6532 1.7810 -0.0000 -0.0000 -11.8221 -23.2481 13.7065 16.7496 -0.0000 -0.0000
-3.9191 32.3566 -0.0428 -3.1659 -0.9706 -0.6477 3.0869 -4.0043 0.0399 1.8000 5.3650 -2.0378 0.6617 25.7243 42.2822 -23.9449 -5.1417 -38.2213 -6.7303 0.0000 19.2414 -1.9532 -16.3836 -6.8937 32.8623 0.0000 24.3270 -13.5045 -6.7685 -42.1138 -19.7542 5.0149 41.8212 -10.0051 -0.0000 21.1735 -0.9287 9.3483 5.6991 33.1476 -0.0000 -26.2537 8.1778 8.3124 -2.2883 0.5269 -0.0000 -0.0000 -9.5001 18.4092 -5.9453 10.8737 -0.0000 -0.0000 9.1188 -0.8926 0.6547 1.7886 -0.0000 -0.0000 -11.8254 -23.2473 13.7014 16.7527 -0.0000 -0.0000
-3.9157 32.3569 -0.0448 -3.1582 -0.9645 -0.6380 3.0786 -4.0104 0.0386 1.8098 5.3711 -2.0462 0.6619 25.7231 42.2845 -23.9415 -5.1468 -38.2301 -6.7302 0.0000 19.2076 -1.9474 -16.3765 -6.8765 32.8623 0.0000 24.3270 -13.5246 -6.7326 -42.1160 -19.7050 5.0398 41.8108 -10.0017 0.0000 21.1662 -0.9324 9.3297 5.7330 33.1476 -0.0000 -26.2537 8.1922 8.1718 -2.2973 0.4741 -0.0000 -0.0000 -9.4708 18.5158 -6.0335 10.9475 -0.0000 -0.0000 9.1052 -0.9081 0.6382 1.7942 -0.0000 -0.0000 -11.8246 -23.2345 13.7218 16.8128 -0.0000 -0.0000
